<svg width="49" height="43" viewBox="0 0 49 43" fill="none" xmlns="http://www.w3.org/2000/svg">
<path d="M47.9608 29.2585V1.27435V1H20.0062C10.4528 2.3169 7.5216 11.0597 7.2502 15.2664V17.1869H7.52161C9.42144 17.1869 11.5927 14.7177 14.3067 11.9742C16.4779 9.77934 18.8301 9.23063 19.7348 9.23063C17.835 10.3281 18.6492 9.77934 16.2065 12.5229C13.7639 15.2664 12.1355 17.1869 9.69284 18.5587C7.73873 19.6561 4.53616 17.5527 3.17914 16.3638C3.39626 18.1197 5.98365 19.4732 7.2502 19.9305V21.8509C9.15002 21.8509 11.8641 21.8509 17.2922 15.2664C21.6346 9.99883 24.8915 9.04773 25.9771 9.23063C24.2401 10.3281 21.6346 13.346 20.549 14.7177C15.3923 20.2048 13.2211 23.2227 9.69284 24.0458C6.87024 24.7042 3.45055 21.7595 2.09352 20.2048C2.31065 22.3996 5.62177 24.7774 7.2502 25.6919V28.1611C7.5216 28.4354 8.49866 28.8195 10.2357 28.1611C12.4069 27.338 13.4925 26.7893 17.0208 23.7714C20.549 20.7535 24.0773 14.9921 27.0627 11.9742C29.4511 9.55986 34.0287 9.32209 36.019 9.50499C41.0129 9.50499 44.4326 14.8092 45.5182 17.4613V29.5329C44.9754 29.1671 43.4012 27.5026 41.4471 23.7714C39.493 20.0402 37.1951 18.7416 36.2904 18.5587C36.9418 16.8028 40.9043 15.6322 42.8041 15.2664C37.1541 14.7225 35.2381 16.8747 30.4459 22.2577L30.3196 22.3996C25.4343 27.8867 20.2776 33.6482 12.1355 33.9225C6.56945 34.1101 5.01518 32.3145 3.04348 28.779C2.66929 28.108 1.60969 25.0559 1 24.2333C1.51087 31.3043 5.07896 34.014 7.2502 35.2943V41.8788C12.1355 41.9703 24.6201 42.0983 35.4762 41.8788C46.3324 41.6593 48.3227 33.3738 47.9608 29.2585Z" stroke="white" stroke-width="1.5"/>
</svg>
